<svg width="150" height="188" viewBox="0 0 150 188" fill="none" xmlns="http://www.w3.org/2000/svg">
<path fill-rule="evenodd" clip-rule="evenodd" d="M125.966 64.759C133.48 71.9765 139.493 80.7432 143.629 90.5106C147.869 100.503 150 111.099 150 122.007C150.021 132.456 148.012 142.8 144.098 152.409C140.327 161.685 134.915 170.046 128.011 177.199C124.211 181.165 120.023 184.678 115.523 187.685C118.353 181.984 120.361 175.454 121.545 168.096C122.678 161.688 122.753 155.281 121.758 148.872C120.624 141.869 118.496 136.057 115.374 131.436C111.827 126.221 107.288 123.091 101.755 122.047C98.35 121.451 93.6667 121.974 87.7051 123.612C82.5979 125.103 78.2705 126.892 74.7229 128.977C71.1753 126.892 66.8479 125.103 61.7406 123.612C55.7811 121.974 51.1 121.451 47.6952 122.047C42.1618 123.091 37.6235 126.221 34.0759 131.436C30.9545 136.057 28.8259 141.869 27.6924 148.872C26.6974 155.281 26.7719 161.688 27.9055 168.096C29.0473 175.193 30.9549 181.519 33.6284 187.073C29.4669 184.204 25.578 180.896 21.9886 177.177C15.1504 170.081 9.68748 161.662 5.90198 152.386C1.98153 142.752 0 132.536 0 121.985C0.0061824 110.018 2.64575 98.2141 7.71306 87.4929C12.7929 76.8643 20.0988 67.5792 29.0838 60.3329C32.8144 57.3061 36.2093 53.8494 39.2045 50.0277C43.5085 44.5287 46.8749 38.4037 49.2187 31.8093C51.1363 26.422 51.946 19.9394 51.6264 12.6073L51.1576 1.87746C51.0937 0.46916 52.5639 -0.469702 53.7144 0.245622L62.5141 5.67762C74.5738 13.1438 84.2258 23.8513 91.1718 37.5766C99.5667 54.0961 103.402 69.2744 102.614 82.7315C102.592 83.1339 102.741 83.5362 103.04 83.8045C103.359 84.1174 103.721 84.1621 103.956 84.1398C104.19 84.1174 104.531 84.028 104.829 83.6927C109.325 78.4395 112.5 73.097 114.226 67.8661L116.996 59.5281C117.091 59.2496 117.25 58.9998 117.459 58.8009C117.668 58.6019 117.92 58.4597 118.194 58.3869C118.467 58.3141 118.753 58.3128 119.028 58.3831C119.302 58.4535 119.555 58.5934 119.765 58.7905L125.966 64.759ZM82.1739 117.13C85.4359 116.235 88.0631 114.82 90.0489 112.882C91.8961 110.797 93.2427 108.038 94.0929 104.611C94.8003 102.226 95.1561 99.6198 95.1561 96.7876L94.943 93.4345L91.7513 93.211C89.0538 93.211 86.5737 93.5843 84.3024 94.3287C81.0403 95.2228 78.4132 96.6378 76.4274 98.5759C73.7321 101.408 72.1021 105.506 71.5332 110.871C71.2499 113.553 71.2499 115.938 71.5332 118.024L74.725 118.247C77.4224 118.247 79.9026 117.874 82.1739 117.13Z" fill="white"/>
</svg>
